PathFileType	4	(x/y/z)	TRC_MarkerData\Passive\Passive_Pref0005.trc
DataRate	CameraRate	NumFrames	NumMarkers	Units	OrigDataRate	OrigDataStartFrame	OrigNumFrames
240	240	6	50	mm	240	196	313
Frame#	Time	R_AC			L_AC			HEAD			STERN			C7			L_IC			R_IC			L_ASIS			R_ASIS			L_GT			R_GT			L_PSIS			R_PSIS			SACRAL			L_LAT_KNEE			L_MED_KNEE			R_LAT_KNEE			R_MED_KNEE			L_LAT_ANK			L_MED_ANK			R_LAT_ANK			R_MED_ANK			L_THIGH_PROX_POST			L_THIGH_PROX_ANT			L_THIGH_DIST_ANT			L_THIGH_DIST_POST			R_THIGH_PROX_POST			R_THIGH_PROX_ANT			R_THIGH_DIST_ANT			R_THIGH_DIST_POST			L_SHANK_PROX_POST			L_SHANK_PROX_ANT			L_SHANK_DIST_ANT			L_SHANK_DIST_POST			R_SHANK_PROX_POST			R_SHANK_PROX_ANT			R_SHANK_DIST_ANT			R_SHANK_DIST_POST			L_HEEL_LAT			L_HEEL_SUP			L_HEEL_MED			R_HEEL_LAT			R_HEEL_SUP			R_HEEL_MED			L_1ST_MET			L_5TH_MET			L_TOE			R_1ST_MET			R_5TH_MET			R_TOE			
		X1	Y1	Z1	X2	Y2	Z2	X3	Y3	Z3	X4	Y4	Z4	X5	Y5	Z5	X6	Y6	Z6	X7	Y7	Z7	X8	Y8	Z8	X9	Y9	Z9	X10	Y10	Z10	X11	Y11	Z11	X12	Y12	Z12	X13	Y13	Z13	X14	Y14	Z14	X15	Y15	Z15	X16	Y16	Z16	X17	Y17	Z17	X18	Y18	Z18	X19	Y19	Z19	X20	Y20	Z20	X21	Y21	Z21	X22	Y22	Z22	X23	Y23	Z23	X24	Y24	Z24	X25	Y25	Z25	X26	Y26	Z26	X27	Y27	Z27	X28	Y28	Z28	X29	Y29	Z29	X30	Y30	Z30	X31	Y31	Z31	X32	Y32	Z32	X33	Y33	Z33	X34	Y34	Z34	X35	Y35	Z35	X36	Y36	Z36	X37	Y37	Z37	X38	Y38	Z38	X39	Y39	Z39	X40	Y40	Z40	X41	Y41	Z41	X42	Y42	Z42	X43	Y43	Z43	X44	Y44	Z44	X45	Y45	Z45	X46	Y46	Z46	X47	Y47	Z47	X48	Y48	Z48	X49	Y49	Z49	X50	Y50	Z50	

196	0.8151	162.68	1490.9	477.52	140.6	1528.2	73.355	172.78	1831.3	292.69	219.92	1473.6	273.28	84.654	1551.2	276.9	NaN	NaN	NaN	134.94	1071.2	429.12	161.01	1011	120.88	197.25	1033.3	384.74	55.8	928.37	83.526	133.24	954.08	443.4	-22.99	1024.4	220.67	-17.106	1022.3	328.77	-29.926	989.29	274.21	32.922	510.33	112.72	53.191	524.13	249.29	277.55	553.73	382.69	258.14	554.69	253.54	-345.93	244.31	172.55	-345.49	251.29	261.44	264.86	84.894	321.22	301.25	120.77	227.62	29.166	752.43	100.36	92	739.93	94.061	89.108	669.68	105.6	15.602	677.65	105.84	185.18	769.31	434.79	248.28	795.85	425.34	270.43	723.59	412.49	203.65	699.25	416.88	-57.86	465.3	140.29	-14.893	418.66	145.94	-51.985	386.03	157.67	-90.536	429.43	142.44	256.04	360.25	385.77	319.31	373.75	364.76	321.66	300.82	347.67	257.44	287.18	367.59	-438.66	230.33	182.37	-428.47	260.78	212.47	-440.05	240.27	248.85	199.77	34.964	287.87	198.56	67.807	255.87	220.45	43.069	225.38	-280.14	85.983	286.29	-297.41	91.477	176.47	-235.85	61.15	255.61	430.53	64.042	241.69	407.16	46.091	347.72	474.95	72.14	285.5
197	0.81928	168.07	1491.8	477.51	145.38	1528.9	73.309	178.34	1832.1	293.01	225.05	1474.5	273.19	89.759	1551.9	276.98	NaN	NaN	NaN	140.56	1072	429.33	166.63	1011.8	121.28	202.73	1034	385.15	62.04	928.75	83.692	138.6	954.62	443.7	-17.445	1024.8	220.94	-11.602	1023	329.06	-24.401	989.84	274.54	42.567	510.42	111.32	63.567	523.59	247.84	281.03	553.59	382.7	261.67	554.77	253.5	-338.67	248.01	171.85	-337.76	254.7	260.77	265.19	85.023	321.03	301.69	120.55	227.34	37.194	752.25	99.9	100.2	740.47	93.559	97.99	670.18	104.85	20.155	677.29	105.46	189.6	769.57	434.86	253.03	795.78	425.6	274.74	723.4	412.71	207.78	699.43	416.95	-48.561	466.21	139.11	-6.0023	419.1	144.46	-43.369	386.78	156.23	-81.588	430.66	141.29	258.25	360.28	385.57	321.65	373.36	364.64	323.52	300.43	347.5	259.16	287.21	367.37	-431.52	234.96	182	-420.88	265.2	212.16	-432.52	244.71	248.53	199.94	35.186	287.88	198.72	67.978	255.81	220.56	43.167	225.35	-274.01	88.556	284.74	-291.74	94.58	175.01	-230.11	63.332	253.8	430.75	63.119	241.32	407.45	45.724	347.51	475.2	71.133	284.99
198	0.82346	173.44	1492.7	477.48	150.07	1529.6	73.235	183.85	1832.9	293.29	230.15	1475.4	273.08	94.842	1552.6	277.05	NaN	NaN	NaN	146.14	1072.8	429.54	172.24	1012.7	121.69	208.19	1034.7	385.57	68.26	929.18	83.85	143.9	955.16	444	-11.929	1025.2	221.22	-6.1299	1023.6	329.37	-18.924	990.37	274.87	52.27	510.65	109.92	73.948	523.21	246.37	284.42	553.43	382.74	265.15	554.85	253.49	-331.19	251.62	171.07	-329.84	258.04	260.03	265.51	85.151	320.85	302.11	120.35	227.05	45.229	752.18	99.417	108.38	741.13	93.046	106.87	670.8	104.08	23.946	677.01	105.14	193.94	769.83	434.94	257.7	795.71	425.86	278.97	723.21	412.94	211.83	699.6	417.03	-39.175	467.21	137.91	2.9989	419.65	142.97	-34.622	387.65	154.77	-72.529	431.96	140.11	260.39	360.31	385.38	323.92	372.97	364.55	325.31	300.05	347.36	260.82	287.23	367.17	-424.13	239.44	181.54	-413.08	269.47	211.76	-424.77	248.99	248.09	200.1	35.404	287.89	198.87	68.147	255.74	220.67	43.262	225.33	-267.57	91.142	283.15	-285.72	97.675	173.52	-224.04	65.57	251.98	430.96	62.245	240.97	407.72	45.391	347.32	475.43	70.182	284.51
199	0.82764	178.8	1493.6	477.44	154.7	1530.3	73.138	189.32	1833.7	293.54	235.22	1476.3	272.94	99.904	1553.4	277.11	NaN	NaN	NaN	151.69	1073.7	429.76	177.84	1013.5	122.1	213.61	1035.4	386	74.459	929.68	83.998	149.16	955.68	444.3	-6.4399	1025.7	221.51	-0.68641	1024.2	329.67	-13.495	990.89	275.2	62.031	511	108.51	84.326	522.99	244.9	287.72	553.27	382.79	268.58	554.92	253.49	-323.49	255.14	170.2	-321.74	261.3	259.2	265.81	85.28	320.67	302.52	120.17	226.78	53.27	752.22	98.913	116.55	741.91	92.522	115.73	671.53	103.28	29.215	677.07	104.47	198.23	770.09	435.03	262.3	795.63	426.13	283.13	723.02	413.18	215.81	699.77	417.12	-29.704	468.28	136.67	12.108	420.31	141.48	-25.746	388.59	153.31	-63.361	433.32	138.89	262.46	360.33	385.23	326.11	372.58	364.48	327.04	299.67	347.24	262.43	287.24	367	-416.5	243.74	180.96	-405.08	273.58	211.23	-416.82	253.1	247.55	200.25	35.62	287.9	199.02	68.316	255.66	220.77	43.358	225.31	-260.84	93.725	281.55	-279.37	100.74	172	-217.64	67.845	250.17	431.15	61.419	240.66	407.97	45.084	347.16	475.64	69.283	284.08
200	0.83182	184.16	1494.5	477.38	159.27	1531	73.02	194.76	1834.6	293.76	240.28	1477.3	272.79	104.95	1554.2	277.15	NaN	NaN	NaN	157.21	1074.5	429.99	183.42	1014.5	122.52	219.01	1036.1	386.45	80.637	930.24	84.136	154.36	956.19	444.6	-0.97641	1026.1	221.79	4.7315	1024.9	329.98	-8.1107	991.42	275.53	71.85	511.46	107.09	94.693	522.92	243.43	290.92	553.1	382.87	271.95	554.97	253.51	-315.57	258.54	169.25	-313.47	264.46	258.29	266.1	85.407	320.49	302.91	120.01	226.53	61.318	752.38	98.39	124.7	742.81	91.989	124.6	672.38	102.47	36.331	677.48	103.4	202.46	770.35	435.13	266.84	795.55	426.41	287.21	722.82	413.43	219.72	699.95	417.23	-20.153	469.41	135.4	21.322	421.05	139.99	-16.746	389.62	151.84	-54.09	434.72	137.64	264.46	360.34	385.12	328.23	372.2	364.45	328.71	299.31	347.16	263.98	287.26	366.87	-408.63	247.86	180.28	-396.89	277.53	210.58	-408.67	257.05	246.87	200.39	35.832	287.91	199.16	68.487	255.58	220.88	43.455	225.29	-253.82	96.29	279.94	-272.68	103.74	170.46	-210.92	70.136	248.37	431.33	60.639	240.39	408.2	44.799	347.03	475.84	68.432	283.69
201	0.836	189.5	1495.5	477.31	163.77	1531.7	72.887	200.14	1835.5	293.95	245.3	1478.2	272.63	109.97	1555	277.18	NaN	NaN	NaN	162.69	1075.4	430.23	188.99	1015.5	122.94	224.38	1036.8	386.91	86.792	930.87	84.264	159.52	956.7	444.89	4.4644	1026.5	222.08	10.127	1025.5	330.29	-2.7679	991.94	275.85	81.725	512.02	105.67	105.04	523.01	241.96	294.04	552.93	382.98	275.28	555.02	253.55	-307.43	261.82	168.21	-305.03	267.51	257.29	266.37	85.533	320.33	303.29	119.86	226.29	69.374	752.67	97.854	132.83	743.83	91.447	133.45	673.34	101.63	44.998	678.2	102	206.64	770.61	435.23	271.32	795.47	426.69	291.22	722.63	413.69	223.56	700.12	417.34	-10.523	470.59	134.11	30.638	421.88	138.5	-7.6239	390.7	150.37	-44.718	436.15	136.36	266.4	360.35	385.04	330.28	371.83	364.44	330.33	298.95	347.11	265.49	287.27	366.77	-400.54	251.79	179.46	-388.51	281.29	209.81	-400.34	260.82	246.07	200.53	36.042	287.92	199.29	68.658	255.5	220.98	43.557	225.27	-246.52	98.822	278.32	-265.66	106.68	168.92	-203.9	72.425	246.6	431.51	59.904	240.16	408.42	44.531	346.92	476.02	67.624	283.34
